<svg width="16" height="16" viewBox="0 0 16 16" fill="none" xmlns="http://www.w3.org/2000/svg">
<path d="M3.63637 15.9212V7.72145L1.71919 5.39498L0 4.10396V14.4742C0 15.2749 0.489062 15.9212 1.09094 15.9212H3.63637Z" fill="#4285F4"/>
<path d="M12.3636 15.9212H14.9091C15.5127 15.9212 16 15.2724 16 14.4742V4.10403L14.0527 5.58275L12.3636 7.72144V15.9212Z" fill="#34A853"/>
<path d="M3.63638 7.72145L3.3755 4.51756L3.63638 1.45111L8 5.79217L12.3636 1.45111L12.6554 4.352L12.3636 7.72145L8 12.0625L3.63638 7.72145Z" fill="#EA4335"/>
<path d="M12.3636 1.45113V7.72147L16 4.10398V2.17461C16 0.385181 14.46 -0.634923 13.3819 0.438238L12.3636 1.45113Z" fill="#FBBC04"/>
<path d="M0 4.10397L1.67244 5.76781L3.63637 7.72146V1.45112L2.61812 0.43823C1.53812 -0.635014 0 0.385173 0 2.17452V4.10397Z" fill="#C5221F"/>
</svg>
